Coordinates
version=1
nRows=11
nColumns=40
inDegrees=yes

Units are S.I. units (second, meters, Newtons, ...)
Angles are in degrees.

endheader
time	pelvis_tilt	pelvis_list	pelvis_rotation	pelvis_tx	pelvis_ty	pelvis_tz	hip_flexion_r	hip_adduction_r	hip_rotation_r	knee_angle_r	knee_angle_r_beta	ankle_angle_r	subtalar_angle_r	mtp_angle_r	hip_flexion_l	hip_adduction_l	hip_rotation_l	knee_angle_l	knee_angle_l_beta	ankle_angle_l	subtalar_angle_l	mtp_angle_l	lumbar_extension	lumbar_bending	lumbar_rotation	arm_flex_r	arm_add_r	arm_rot_r	elbow_flex_r	pro_sup_r	wrist_flex_r	wrist_dev_r	arm_flex_l	arm_add_l	arm_rot_l	elbow_flex_l	pro_sup_l	wrist_flex_l	wrist_dev_l
     41.86414286	     -6.80763651	     -4.95391938	     -3.51255679	      0.95719112	      0.93300884	      0.41970794	     41.02970519	     -7.64123766	     -7.09568005	     60.79708182	     60.79708182	      4.60905559	    -13.08012717	      0.37710854	     10.72987244	     -4.77875482	    -11.08966120	     16.22762476	     16.22762476	     15.01919616	     -1.44689184	     -4.28124367	    -11.33247183	      3.57674679	      3.36562488	     -0.02967382	    -13.91584626	     -7.50634765	     51.70868488	     46.47591310	      0.00000000	      0.00000000	     22.15243685	    -18.34102938	      7.11123075	     59.44449969	     46.03204459	      0.00000000	      0.00000000
     41.87578571	     -6.82942274	     -4.77790307	     -3.60049392	      0.95620200	      0.93253725	      0.41962503	     41.27587048	     -7.57048868	     -7.14325330	     58.17359810	     58.17359810	      4.31435062	    -12.74472391	      0.12583888	     10.00841039	     -4.50259656	    -11.16569662	     15.76948953	     15.76948953	     15.08770181	     -1.41336661	     -4.74860597	    -11.33413205	      3.43500526	      2.56529648	      0.98015794	    -13.18555219	     -9.27060017	     43.29800019	     46.78404315	      0.00000000	      0.00000000	     21.90337329	    -19.50916555	      5.79718727	     64.39319213	     46.27196710	      0.00000000	      0.00000000
     41.88742857	     -6.86018135	     -4.62545493	     -3.71387244	      0.95527660	      0.93195411	      0.41967826	     41.41594168	     -7.43618969	     -7.22725222	     55.35502994	     55.35502994	      4.14382142	    -12.17793519	      0.38835709	      9.26810663	     -4.26998378	    -11.31654654	     15.29676983	     15.29676983	     15.33007110	     -1.18054101	     -4.83853986	    -11.41731935	      3.36717851	      3.41564472	     -1.12960155	    -13.68296562	     -9.39246768	     40.67064263	     46.86026231	      0.00000000	      0.00000000	     23.41535648	    -19.10570762	      5.27665804	     67.05657654	     46.37483742	      0.00000000	      0.00000000
     41.89907143	     -6.96323017	     -4.40638281	     -3.80042836	      0.95437377	      0.93118958	      0.41982610	     41.46850892	     -7.36805760	     -7.43305216	     52.23963178	     52.23963178	      3.73716493	    -11.73484565	      0.03325615	      8.63105286	     -3.99221993	    -11.53723906	     14.84885757	     14.84885757	     15.44328525	     -0.89003731	     -5.27811686	    -11.39859034	      3.17726912	      2.62167885	     -0.49538428	    -13.31916541	    -10.82999009	     33.84638954	     47.12686120	      0.00000000	      0.00000000	     23.07345476	    -20.13378296	      4.07691727	     72.05686358	     46.61153366	      0.00000000	      0.00000000
     41.91071429	     -7.08948141	     -4.29395070	     -3.83646779	      0.95362687	      0.93033164	      0.42007832	     41.35031458	     -7.19950685	     -7.80786914	     48.91386884	     48.91386884	      3.57012817	    -11.03707863	      0.44636103	      8.00166185	     -3.82013296	    -11.61885016	     14.40096099	     14.40096099	     15.72590915	     -0.62278950	     -5.36322480	    -11.33849869	      3.19892102	      3.14262216	     -2.55538200	    -13.65979923	    -10.92116689	     32.21682376	     47.17339297	      0.00000000	      0.00000000	     24.42321736	    -19.85741402	      3.59527638	     74.22489668	     46.69716828	      0.00000000	      0.00000000
     41.92235714	     -7.13248516	     -3.94905146	     -3.92497694	      0.95309336	      0.92940242	      0.42049053	     41.07400613	     -7.17297240	     -8.02887745	     45.46846781	     45.46846781	      3.24320355	    -10.31149125	      0.35837673	      7.24686193	     -3.43427815	    -12.05578739	     13.91121190	     13.91121190	     15.92191370	      0.04223672	     -5.71751855	    -11.40068276	      2.82883268	      3.11935948	     -3.35750026	    -13.67614259	    -11.62243362	     28.39800628	     47.33149255	      0.00000000	      0.00000000	     24.52703623	    -20.29147866	      2.86347095	     79.25005860	     46.87805564	      0.00000000	      0.00000000
     41.93400000	     -7.15552544	     -3.73848656	     -3.93501902	      0.95274899	      0.92843597	      0.42097625	     40.52979525	     -7.04343533	     -8.52072745	     41.80645328	     41.80645328	      3.07787335	     -9.36583311	      0.77038559	      6.48319568	     -3.17193362	    -12.20569820	     13.46640185	     13.46640185	     16.23047499	      0.44709165	     -5.86603010	    -11.44713098	      2.67487293	      3.57463948	     -5.15316333	    -13.83599438	    -11.79129621	     26.64514195	     47.38987075	      0.00000000	      0.00000000	     25.55240230	    -19.97687923	      2.25574883	     82.12696406	     46.99114293	      0.00000000	      0.00000000
     41.94564286	     -7.22755005	     -3.54186413	     -3.85977943	      0.95266381	      0.92730807	      0.42151701	     39.83289415	     -6.89598863	     -9.15202624	     38.00083414	     38.00083414	      2.92586070	     -8.34978421	      1.33327231	      5.75447646	     -2.93209822	    -12.35063775	     12.99575542	     12.99575542	     16.52737352	      0.97072735	     -6.04366298	    -11.37380723	      2.54822688	      3.80249477	     -6.90627941	    -13.92882481	    -11.91268108	     25.28359399	     47.43383292	      0.00000000	      0.00000000	     26.29594235	    -19.85045099	      1.86168000	     85.01186733	     47.08471763	      0.00000000	      0.00000000
     41.95728571	     -7.21154796	     -3.21476977	     -3.79645790	      0.95288139	      0.92604932	      0.42220079	     38.98868321	     -6.84484493	     -9.77211392	     34.30795571	     34.30795571	      2.86730552	     -7.08889251	      1.96479156	      4.88727491	     -2.56757397	    -12.66853692	     12.48878288	     12.48878288	     16.83441472	      1.73043917	     -6.29548735	    -11.41903329	      2.19580252	      3.91764502	     -8.53624823	    -13.86180717	    -12.05683836	     23.98706509	     47.47580737	      0.00000000	      0.00000000	     26.71720951	    -19.94273632	      1.35210458	     89.01686840	     47.21360858	      0.00000000	      0.00000000
     41.96892857	     -7.26623865	     -2.94762549	     -3.61030814	      0.95334380	      0.92456685	      0.42295851	     38.08235483	     -6.74540603	    -10.56459982	     30.71643223	     30.71643223	      2.92699499	     -5.81319196	      3.22224343	      4.15671272	     -2.30620834	    -12.95370199	     12.10983102	     12.10983102	     17.19426795	      2.61388243	     -6.58867771	    -11.32526550	      1.94048287	      2.94675014	     -9.49205331	    -13.83285424	    -12.18668645	     22.99911294	     47.49125279	      0.00000000	      0.00000000	     26.05708963	    -20.72987329	      0.01682874	     93.78532802	     47.44056772	      0.00000000	      0.00000000
     41.98057143	     -7.33831925	     -2.70125888	     -3.39319092	      0.95404585	      0.92292513	      0.42383492	     37.05568528	     -6.54410637	    -11.26243650	     27.18781745	     27.18781745	      2.84516653	     -4.69410601	      4.13429765	      3.43466855	     -2.03614506	    -12.89497055	     11.73162245	     11.73162245	     17.55693462	      3.02876496	     -6.72093935	    -11.08090975	      1.75386099	      3.12143821	    -11.23787347	    -13.70326323	    -12.15005505	     22.33313184	     47.49389184	      0.00000000	      0.00000000	     26.80949451	    -20.53833609	     -0.24951724	     95.81413451	     47.50839423	      0.00000000	      0.00000000
